#N canvas 192 23 1007 685 10;
#X obj 308 300 osc~;
#X obj 230 298 osc~;
#X obj 452 298 osc~;
#X obj 385 298 osc~;
#X obj 526 299 osc~;
#X obj 606 297 osc~;
#X obj 641 54 bng 15 250 50 0 empty empty empty 17 7 0 10 -262144 -1
-1;
#X obj 263 50 bng 15 250 50 0 empty empty empty 17 7 0 10 -262144 -1
-1;
#X obj 429 517 /~ 6;
#X obj 429 443 +~;
#X text 197 50 bang 1;
#X text 668 54 bang 2;
#X floatatom 582 114 5 0 0 0 - - -;
#X floatatom 309 111 5 0 0 0 - - -;
#X obj 427 641 dac~;
#X obj 272 235 * 2.4;
#X obj 318 236 * 2;
#X obj 357 236 * 3.1;
#X obj 403 235 * 3;
#X obj 436 235 * 4.5;
#X obj 486 235 * 4;
#X obj 520 235 * 5.5;
#X obj 566 236 * 5;
#X obj 607 236 * 6;
#X obj 648 236 * 6;
#X obj 416 7 loadbang;
#X obj 424 44 metro 10000;
#X obj 424 79 random 400;
#X connect 0 0 9 0;
#X connect 1 0 9 0;
#X connect 2 0 9 1;
#X connect 3 0 9 0;
#X connect 4 0 9 1;
#X connect 5 0 9 1;
#X connect 6 0 12 0;
#X connect 7 0 13 0;
#X connect 8 0 14 0;
#X connect 8 0 14 1;
#X connect 9 0 8 0;
#X connect 12 0 1 0;
#X connect 12 0 15 0;
#X connect 12 0 17 0;
#X connect 12 0 19 0;
#X connect 12 0 21 0;
#X connect 12 0 23 0;
#X connect 13 0 1 0;
#X connect 13 0 16 0;
#X connect 13 0 18 0;
#X connect 13 0 20 0;
#X connect 13 0 22 0;
#X connect 13 0 24 0;
#X connect 15 0 0 0;
#X connect 16 0 0 0;
#X connect 17 0 3 0;
#X connect 18 0 3 0;
#X connect 19 0 2 0;
#X connect 20 0 2 0;
#X connect 21 0 4 0;
#X connect 22 0 4 0;
#X connect 23 0 5 0;
#X connect 24 0 5 0;
#X connect 25 0 26 0;
#X connect 26 0 27 0;
#X connect 27 0 13 0;
#X connect 27 0 12 0;
